<svg width="59" height="37" viewBox="0 0 59 37" fill="none" xmlns="http://www.w3.org/2000/svg">
<path d="M21.1335 10.4505H37.8654V0H21.1335V10.4505ZM41.7666 10.4505H58.9989V6.22984C58.9989 2.08976 56.3728 0 51.1452 0H41.7666V10.4505ZM37.8654 23.3938V13.5864H21.1335V23.3938H37.8654ZM17.2323 10.4505V0H7.85265C2.6517 0 0.0010671 2.07004 0.0010671 6.22898V10.4497L17.2323 10.4505ZM58.9979 13.5864H41.7677V23.3938H59L58.9979 13.5864ZM17.2323 23.3938V13.5864H0V23.3938H17.2323ZM41.7666 37H51.1463C56.3728 37 58.9989 34.9102 58.9989 30.7702V26.5495H41.7666V37ZM37.8654 26.5495H21.1335V37H37.8654V26.5495ZM7.85372 37H17.2323V26.5495H0V30.7702C0 34.93 2.6517 37 7.85372 37Z" fill="#F24E1E"/>
</svg>
