<svg width="55" height="35" viewBox="0 0 55 35" fill="none" xmlns="http://www.w3.org/2000/svg">
<path d="M0 17.9444C0 19.632 1.36802 21 3.05556 21C4.74309 21 6.11111 19.632 6.11111 17.9444V17.0556C6.11111 15.368 4.74309 14 3.05556 14C1.36802 14 0 15.368 0 17.0556V17.9444ZM0 31.9444C0 33.632 1.36802 35 3.05556 35C4.74309 35 6.11111 33.632 6.11111 31.9444V31.0556C6.11111 29.368 4.74309 28 3.05556 28C1.36802 28 0 29.368 0 31.0556V31.9444ZM0 3.94444C0 5.63198 1.36802 7 3.05556 7C4.74309 7 6.11111 5.63198 6.11111 3.94444V3.05556C6.11111 1.36802 4.74309 0 3.05556 0C1.36802 0 0 1.36802 0 3.05556V3.94444ZM12.2222 17.5C12.2222 19.433 13.7892 21 15.7222 21H51.5C53.433 21 55 19.433 55 17.5C55 15.567 53.433 14 51.5 14H15.7222C13.7892 14 12.2222 15.567 12.2222 17.5ZM12.2222 31.5C12.2222 33.433 13.7892 35 15.7222 35H51.5C53.433 35 55 33.433 55 31.5C55 29.567 53.433 28 51.5 28H15.7222C13.7892 28 12.2222 29.567 12.2222 31.5ZM15.7222 0C13.7892 0 12.2222 1.567 12.2222 3.5C12.2222 5.433 13.7892 7 15.7222 7H51.5C53.433 7 55 5.433 55 3.5C55 1.567 53.433 0 51.5 0H15.7222ZM0 17.9444C0 19.632 1.36802 21 3.05556 21C4.74309 21 6.11111 19.632 6.11111 17.9444V17.0556C6.11111 15.368 4.74309 14 3.05556 14C1.36802 14 0 15.368 0 17.0556V17.9444ZM0 31.9444C0 33.632 1.36802 35 3.05556 35C4.74309 35 6.11111 33.632 6.11111 31.9444V31.0556C6.11111 29.368 4.74309 28 3.05556 28C1.36802 28 0 29.368 0 31.0556V31.9444ZM0 3.94444C0 5.63198 1.36802 7 3.05556 7C4.74309 7 6.11111 5.63198 6.11111 3.94444V3.05556C6.11111 1.36802 4.74309 0 3.05556 0C1.36802 0 0 1.36802 0 3.05556V3.94444ZM12.2222 17.5C12.2222 19.433 13.7892 21 15.7222 21H51.5C53.433 21 55 19.433 55 17.5C55 15.567 53.433 14 51.5 14H15.7222C13.7892 14 12.2222 15.567 12.2222 17.5ZM12.2222 31.5C12.2222 33.433 13.7892 35 15.7222 35H51.5C53.433 35 55 33.433 55 31.5C55 29.567 53.433 28 51.5 28H15.7222C13.7892 28 12.2222 29.567 12.2222 31.5ZM15.7222 0C13.7892 0 12.2222 1.567 12.2222 3.5C12.2222 5.433 13.7892 7 15.7222 7H51.5C53.433 7 55 5.433 55 3.5C55 1.567 53.433 0 51.5 0H15.7222Z" fill="#CECECE"/>
</svg>
