<svg width="26" height="26" viewBox="0 0 26 26" fill="none" xmlns="http://www.w3.org/2000/svg">
<path d="M7.29294 25.123C7.87894 25.123 8.27744 24.818 8.98044 24.1855L13.0354 20.588H20.5469C24.0389 20.588 25.9139 18.6545 25.9139 15.2205V6.24395C25.9139 2.81045 24.0389 0.876953 20.5469 0.876953H5.45294C1.97294 0.876953 0.0859375 2.79895 0.0859375 6.24395V15.2205C0.0859375 18.666 1.97244 20.588 5.45294 20.588H6.01544V23.6345C6.01544 24.537 6.48444 25.123 7.29294 25.123ZM7.77294 22.9785V19.58C7.77294 18.9475 7.53894 18.701 6.89444 18.701H5.46444C3.08594 18.701 1.97244 17.494 1.97244 15.209V6.24395C1.97244 3.95895 3.08594 2.76395 5.46494 2.76395H20.5469C22.9139 2.76395 24.0269 3.95895 24.0269 6.24395V15.209C24.0269 17.494 22.9139 18.701 20.5469 18.701H12.9529C12.3084 18.701 11.9689 18.795 11.5229 19.252L7.77294 22.9785ZM13.0819 13.0995C13.6444 13.0995 13.9724 12.783 13.9844 12.174L14.1484 5.98645C14.1599 5.38845 13.6914 4.94345 13.0704 4.94345C12.4374 4.94345 11.9919 5.37695 12.0039 5.97445L12.1679 12.174C12.1799 12.7715 12.4959 13.0995 13.0819 13.0995ZM13.0819 16.908C13.7619 16.908 14.3474 16.369 14.3474 15.6895C14.3474 15.0095 13.7734 14.4705 13.0824 14.4705C12.3904 14.4705 11.8164 15.0215 11.8164 15.6895C11.8164 16.3575 12.4024 16.908 13.0819 16.908Z" fill="black"/>
</svg>
