<svg width="123" height="150" viewBox="0 0 123 150" fill="none" xmlns="http://www.w3.org/2000/svg">
<path d="M61.5 114.286C57.4223 114.286 53.5116 112.781 50.6282 110.102C47.7449 107.422 46.125 103.789 46.125 100C46.125 92.0714 52.9669 85.7143 61.5 85.7143C65.5777 85.7143 69.4884 87.2194 72.3718 89.8985C75.2551 92.5776 76.875 96.2112 76.875 100C76.875 103.789 75.2551 107.422 72.3718 110.102C69.4884 112.781 65.5777 114.286 61.5 114.286ZM107.625 135.714V64.2857H15.375V135.714H107.625ZM107.625 50C111.703 50 115.613 51.5051 118.497 54.1842C121.38 56.8633 123 60.4969 123 64.2857V135.714C123 139.503 121.38 143.137 118.497 145.816C115.613 148.495 111.703 150 107.625 150H15.375C11.2973 150 7.3866 148.495 4.50323 145.816C1.61986 143.137 0 139.503 0 135.714V64.2857C0 56.3571 6.84187 50 15.375 50H23.0625V35.7143C23.0625 26.2423 27.1122 17.1582 34.3206 10.4605C41.529 3.76274 51.3057 0 61.5 0C66.5477 0 71.5459 0.923777 76.2094 2.71859C80.8728 4.5134 85.1102 7.14409 88.6794 10.4605C92.2487 13.7768 95.08 17.714 97.0116 22.047C98.9433 26.3801 99.9375 31.0242 99.9375 35.7143V50H107.625ZM61.5 14.2857C55.3834 14.2857 49.5174 16.5434 45.1923 20.562C40.8673 24.5806 38.4375 30.0311 38.4375 35.7143V50H84.5625V35.7143C84.5625 30.0311 82.1327 24.5806 77.8077 20.562C73.4826 16.5434 67.6166 14.2857 61.5 14.2857Z" fill="#CCCCCC"/>
</svg>
