<svg width="141" height="141" viewBox="0 0 141 141" fill="none" xmlns="http://www.w3.org/2000/svg">
<path d="M70.5 16.7438C72.9303 16.7438 75.3368 17.2224 77.582 18.1525C79.8273 19.0825 81.8674 20.4456 83.5859 22.1641C85.3044 23.8826 86.6675 25.9227 87.5975 28.168C88.5276 30.4132 89.0063 32.8197 89.0063 35.25C89.0063 37.6803 88.5276 40.0868 87.5975 42.332C86.6675 44.5773 85.3044 46.6174 83.5859 48.3359C81.8674 50.0544 79.8273 51.4175 77.582 52.3475C75.3368 53.2776 72.9303 53.7563 70.5 53.7563C65.5918 53.7563 60.8847 51.8065 57.4141 48.3359C53.9435 44.8653 51.9937 40.1582 51.9937 35.25C51.9937 30.3418 53.9435 25.6347 57.4141 22.1641C60.8847 18.6935 65.5918 16.7438 70.5 16.7438ZM70.5 96.0562C96.6731 96.0562 124.256 108.923 124.256 114.562V124.256H16.7438V114.562C16.7438 108.923 44.3269 96.0562 70.5 96.0562ZM70.5 0C51.0244 0 35.25 15.7744 35.25 35.25C35.25 54.7256 51.0244 70.5 70.5 70.5C89.9756 70.5 105.75 54.7256 105.75 35.25C105.75 15.7744 89.9756 0 70.5 0ZM70.5 79.3125C46.9706 79.3125 0 91.1212 0 114.562V141H141V114.562C141 91.1212 94.0294 79.3125 70.5 79.3125Z" fill="#CCCCCC"/>
</svg>
